# xmcd
#
# Track frame offsets: 
#        150
#        26966
#        56356
#        98236
#        133860
#        168744
#        195662
#        221897
#
# Disc length: 3259 seconds
#
# Revision: 0
# Processed by: cddbd v1.5.2PL0 Copyright (c) Steve Scherf et al.
# Submitted via: ExactAudioCopyFreeDBPlugin 1.0
#
DISCID=7a0cb908
DTITLE=John F. Klaver band - Live at blues Baltica
DYEAR=2016
DGENRE=Blues
TTITLE0=Just for kicks
TTITLE1=Make it so
TTITLE2=Heartfullof blues
TTITLE3=32-20 Blues
TTITLE4=Piece of mind
TTITLE5=Wrong over right
TTITLE6=Devil Woman
TTITLE7=Dynamite
EXTD=
EXTT0=
EXTT1=
EXTT2=
EXTT3=
EXTT4=
EXTT5=
EXTT6=
EXTT7=
PLAYORDER=
